<svg xmlns="http://www.w3.org/2000/svg" viewBox="0 0 512 512">
  <rect width="512" height="512" rx="110" fill="#140B1E"/>
  <!-- Bierkrug -->
  <rect x="120" y="170" width="180" height="230" rx="24" fill="#FFC15E"/>
  <rect x="120" y="170" width="180" height="60" rx="24" fill="#F2843C" opacity=".4"/>
  <path d="M300 210h44a40 40 0 0 1 40 40v70a40 40 0 0 1-40 40h-44v-40h36a12 12 0 0 0 12-12v-56a12 12 0 0 0-12-12h-36z" fill="#FFC15E"/>
  <!-- Schaum -->
  <circle cx="150" cy="160" r="38" fill="#F7F1E6"/>
  <circle cx="210" cy="145" r="46" fill="#F7F1E6"/>
  <circle cx="270" cy="160" r="36" fill="#F7F1E6"/>
  <!-- Krug-Streifen -->
  <rect x="150" y="240" width="16" height="130" rx="8" fill="#F7F1E6" opacity=".35"/>
  <rect x="200" y="240" width="16" height="130" rx="8" fill="#F7F1E6" opacity=".35"/>
  <rect x="250" y="240" width="16" height="130" rx="8" fill="#F7F1E6" opacity=".35"/>
  <!-- Würfel -->
  <g transform="rotate(-12 350 370)">
    <rect x="300" y="320" width="110" height="110" rx="22" fill="#F7F1E6"/>
    <circle cx="330" cy="350" r="11" fill="#FF6161"/>
    <circle cx="355" cy="375" r="11" fill="#FF6161"/>
    <circle cx="380" cy="400" r="11" fill="#FF6161"/>
  </g>
</svg>
